<svg xmlns="http://www.w3.org/2000/svg" xmlns:xlink="http://www.w3.org/1999/xlink" width="375" height="329" viewBox="0 0 375 329">
  <defs>
    <linearGradient id="linear-gradient" x1="0.5" x2="0.5" y2="1" gradientUnits="objectBoundingBox">
      <stop offset="0" stop-color="#8185ff"/>
      <stop offset="1" stop-color="#414380"/>
    </linearGradient>
    <linearGradient id="linear-gradient-3" x1="0.5" x2="0.5" y2="1" gradientUnits="objectBoundingBox">
      <stop offset="0" stop-color="#ffc500"/>
      <stop offset="1" stop-color="#c49700"/>
    </linearGradient>
    <linearGradient id="linear-gradient-11" x1="0.5" y1="1" x2="0.5" gradientUnits="objectBoundingBox">
      <stop offset="0" stop-color="#c99c00"/>
      <stop offset="1" stop-color="#ffc400"/>
    </linearGradient>
    <filter id="Barraprog_1" x="-9" y="22" width="18" height="50" filterUnits="userSpaceOnUse">
      <feOffset dy="3" input="SourceAlpha"/>
      <feGaussianBlur stdDeviation="3" result="blur"/>
      <feFlood flood-color="#0019ff" flood-opacity="0.529"/>
      <feComposite operator="in" in2="blur"/>
      <feComposite in="SourceGraphic"/>
    </filter>
    <clipPath id="clip-barra-programacao">
      <rect width="375" height="329"/>
    </clipPath>
  </defs>
  <g id="barra-programacao" clip-path="url(#clip-barra-programacao)">
    <path id="Barraprog_1-2" data-name="Barraprog 1" d="M-2,0H375V32H0Z" transform="translate(0 28)" fill="url(#linear-gradient)"/>
    <path id="Barra_prog_2" data-name="Barra prog 2" d="M0,0H375V34H0Z" transform="translate(0 296)" fill="url(#linear-gradient)"/>
    <path id="Caminho_1" data-name="Caminho 1" d="M121.606,514.681l25.8-31.542h28.632l-25.45,31.542Z" transform="translate(-105 -455)" fill="url(#linear-gradient-3)"/>
    <path id="Caminho_2" data-name="Caminho 2" d="M121.606,514.681l25.8-31.542h28.632l-25.45,31.542Z" transform="translate(-25 -455)" fill="url(#linear-gradient-3)"/>
    <path id="Caminho_3" data-name="Caminho 3" d="M121.606,514.681l25.8-31.542h28.632l-25.45,31.542Z" transform="translate(109 -186)" fill="url(#linear-gradient-3)"/>
    <path id="Caminho_4" data-name="Caminho 4" d="M121.606,514.681l25.8-31.542h28.632l-25.45,31.542Z" transform="translate(186 -186)" fill="url(#linear-gradient-3)"/>
    <path id="Caminho_5" data-name="Caminho 5" d="M175.661,514.681l-25.623-31.542H121.606l25.272,31.542Z" transform="translate(108.945 -455)" fill="url(#linear-gradient-3)"/>
    <path id="Caminho_6" data-name="Caminho 6" d="M175.661,514.681l-25.623-31.542H121.606l25.272,31.542Z" transform="translate(-24.055 -186)" fill="url(#linear-gradient-3)"/>
    <path id="Caminho_7" data-name="Caminho 7" d="M175.661,514.681l-25.623-31.542H121.606l25.272,31.542Z" transform="translate(186.945 -455)" fill="url(#linear-gradient-3)"/>
    <path id="Caminho_8" data-name="Caminho 8" d="M175.661,514.681l-25.623-31.542H121.606l25.272,31.542Z" transform="translate(-106.055 -186)" fill="url(#linear-gradient-3)"/>
    <path id="Caminho_9" data-name="Caminho 9" d="M489.615,651.951l15.254-28h155l18.7,28Z" transform="translate(-398 -624)" stroke="#707070" stroke-width="1" fill="url(#linear-gradient-11)"/>
    <text id="ProgramacAo" transform="translate(96)" font-size="18" font-family="BayouCowboy, Bayou Cowboy"><tspan x="12.798" y="21">ProgramacAo</tspan></text>
    <g transform="matrix(1, 0, 0, 1, 0, 0)" filter="url(#Barraprog_1)">
      <g id="Barraprog_1-3" data-name="Barraprog 1" transform="translate(-375 28)" fill="url(#linear-gradient)">
        <path d="M375,0V0Z" stroke="none"/>
        <path d="M 375 0 L 375 32 L 375 0 Z" stroke="none" fill="#8185ff"/>
      </g>
    </g>
  </g>
</svg>
